<?xml version="1.0" encoding="utf-8"?>
<!-- Generator: Adobe Illustrator 26.0.3, SVG Export Plug-In . SVG Version: 6.00 Build 0)  -->
<svg version="1.1" id="Layer_1" xmlns="http://www.w3.org/2000/svg" xmlns:xlink="http://www.w3.org/1999/xlink" x="0px" y="0px"
	 viewBox="0 0 164.5 109.5" style="enable-background:new 0 0 164.5 109.5;" xml:space="preserve">
<style type="text/css">
	.st0{fill:#39499E;stroke:#1D1D1B;stroke-miterlimit:10;}
	.st1{fill:#FFFFFF;}
	.st2{fill:#39499E;}
</style>
<g id="XMLID_1_">
	<ellipse id="XMLID_2_" class="st0" cx="84.8" cy="46.7" rx="73.8" ry="43.2"/>
	<path id="XMLID_5_" class="st1" d="M94.2,4.7c0,0-0.5-0.3-0.7-0.4c-0.2-0.1-6.2,4.1-16.8,5c-1.5,0.2-7.9,0.1-9.8,3.4
		c-0.5,0.7-3.4,3.3-2.2,13c0,0,3.7-8.1,9.4-9.8c0,0,2.3-1.2,3.5-1.2C78.6,14.4,88.3,11.5,94.2,4.7z"/>
	<path class="st1" d="M66.1,32.9c0,0,0.5,0.3,0.7,0.4C67,33.4,73,29.1,83.6,28c1.5-0.3,7.8-0.3,9.7-3.6c0.4-0.7,3.3-3.3,2-13
		c0,0-3.6,8.2-9.2,10c0,0-2.3,1.2-3.5,1.3C81.6,22.9,71.9,26,66.1,32.9z"/>
	<polygon id="XMLID_6_" class="st1" points="45.6,39.5 45.6,42.1 36,42.1 36,51 44.9,51 44.4,53.6 36,53.6 36,63.1 46.2,63.1 
		46.2,65.7 31,65.7 31,39.5 	"/>
	<rect id="XMLID_8_" x="49.9" y="39.5" class="st1" width="5.2" height="26.3"/>
	<polygon id="XMLID_9_" class="st1" points="58,39.5 63.2,39.5 68.9,61.3 75.1,42.8 78.2,42.7 84.1,61.3 89.9,39.5 93,39.5 
		85.7,65.7 80.3,65.7 75.5,49.9 70.4,65.7 65.4,65.7 	"/>
	<path id="XMLID_10_" class="st1" d="M106.3,38.8l-5,0.7l-9.7,26.3h3.3l2.7-8.5l9.8-0.1l2.8,8.6h5.7L106.3,38.8z M98.5,54.4l4-11.3
		l3.8,11.3H98.5z"/>
	<path id="XMLID_13_" class="st1" d="M132.2,38.8l-5,0.7l-9.7,26.3h3.3l2.7-8.5l9.8-0.1l2.8,8.6h5.7L132.2,38.8z M124.4,54.4l4-11.3
		l3.8,11.3H124.4z"/>
</g>
<g>
	<path class="st2" d="M28.6,97.6h-0.4c0-0.5,0.1-0.8,0.1-1.1c0-0.4-0.1-0.6-0.3-0.8s-0.4-0.3-0.8-0.3c-0.5,0-0.9,0.2-1.3,0.5
		c-0.4,0.4-0.6,0.8-0.6,1.2c0,0.2,0.1,0.5,0.2,0.7s0.3,0.5,0.7,0.8c0.6,0.6,1.1,1.1,1.3,1.5c0.2,0.4,0.3,0.7,0.3,1
		c0,0.5-0.2,1-0.5,1.4c-0.3,0.5-0.7,0.8-1.3,1.1c-0.6,0.3-1.2,0.4-1.9,0.4c-0.6,0-1.2-0.2-1.6-0.5c-0.4-0.3-0.7-0.7-0.7-1.1
		c0-0.2,0.1-0.4,0.2-0.5c0.1-0.1,0.2-0.2,0.4-0.2c0.2,0,0.3,0.1,0.4,0.2c0.1,0.1,0.1,0.2,0.2,0.5c0.1,0.3,0.2,0.5,0.3,0.7
		c0.1,0.1,0.2,0.3,0.4,0.3c0.2,0.1,0.4,0.1,0.6,0.1c0.6,0,1.2-0.2,1.7-0.7c0.5-0.4,0.7-0.9,0.7-1.5c0-0.2,0-0.4-0.1-0.5
		c-0.1-0.2-0.2-0.4-0.3-0.6c-0.1-0.2-0.4-0.4-0.8-0.8c-0.4-0.4-0.6-0.6-0.7-0.8c-0.1-0.2-0.2-0.4-0.3-0.6c-0.1-0.2-0.1-0.4-0.1-0.6
		c0-0.4,0.1-0.8,0.4-1.2c0.3-0.4,0.6-0.8,1.1-1c0.4-0.2,0.9-0.4,1.5-0.4c0.3,0,0.6,0,1,0.1c0.2,0,0.4,0.1,0.6,0.1
		c-0.1,0.3-0.2,0.6-0.2,0.8C28.8,96.3,28.7,96.8,28.6,97.6z"/>
	<path class="st2" d="M32.8,101.4l0.2,0.3c-1.1,1.1-2.1,1.6-2.9,1.6c-0.3,0-0.6-0.1-0.7-0.3c-0.2-0.2-0.3-0.6-0.3-1
		c0-1,0.3-1.9,0.9-2.9c0.7-1.1,1.5-1.6,2.4-1.6c0.3,0,0.6,0.1,0.7,0.2s0.3,0.4,0.3,0.7c0,0.3-0.1,0.6-0.3,0.9
		c-0.2,0.3-0.6,0.6-1.1,0.9c-0.3,0.1-0.8,0.4-1.7,0.8c0,0.2-0.1,0.5-0.1,0.7c0,0.3,0.1,0.5,0.2,0.7c0.1,0.1,0.3,0.2,0.4,0.2
		c0.2,0,0.4-0.1,0.6-0.2C31.8,102.2,32.2,101.9,32.8,101.4z M30.4,100.5c0.7-0.3,1.3-0.7,1.6-1.1c0.2-0.3,0.4-0.5,0.4-0.8
		c0-0.2-0.1-0.4-0.2-0.5C32.2,98,32,98,31.9,98c-0.2,0-0.3,0.1-0.5,0.2c-0.2,0.2-0.4,0.4-0.5,0.8C30.6,99.4,30.5,99.9,30.4,100.5z"
		/>
	<path class="st2" d="M35.9,96.4L37,96l-0.5,1.9h1.4l-0.1,0.5h-1.4l-0.6,2.3c-0.2,0.7-0.3,1.2-0.3,1.4c0,0.1,0,0.2,0.1,0.3
		s0.1,0.1,0.2,0.1c0.1,0,0.4-0.1,0.6-0.3c0.4-0.2,0.7-0.5,1.1-0.8l0.3,0.3c-1,0.8-1.7,1.2-2,1.4s-0.6,0.3-0.8,0.3
		c-0.2,0-0.3-0.1-0.4-0.2s-0.1-0.3-0.1-0.6c0-0.3,0.1-0.8,0.3-1.5l0.7-2.7h-1.1l0.1-0.5h1.1L35.9,96.4z"/>
	<path class="st2" d="M40.3,96.4l1.1-0.4l-0.5,1.9h1.4l-0.1,0.5h-1.4l-0.6,2.3c-0.2,0.7-0.3,1.2-0.3,1.4c0,0.1,0,0.2,0.1,0.3
		s0.1,0.1,0.2,0.1c0.1,0,0.4-0.1,0.6-0.3c0.4-0.2,0.7-0.5,1.1-0.8l0.3,0.3c-1,0.8-1.7,1.2-2,1.4s-0.6,0.3-0.8,0.3
		c-0.2,0-0.3-0.1-0.4-0.2s-0.1-0.3-0.1-0.6c0-0.3,0.1-0.8,0.3-1.5l0.7-2.7h-1.1l0.1-0.5H40L40.3,96.4z"/>
	<path class="st2" d="M43.1,99l-0.3-0.2c0.5-0.5,0.9-0.9,1.2-1.1c0.4-0.2,0.7-0.3,1-0.3c0.1,0,0.3,0,0.3,0.1s0.1,0.1,0.1,0.3
		c0,0.1-0.1,0.7-0.4,1.7c-0.5,1.6-0.7,2.6-0.7,2.9c0,0.1,0,0.1,0,0.2c0,0,0.1,0.1,0.1,0.1c0.1,0,0.5-0.3,1.1-0.8l0.3,0.3
		c-0.6,0.6-1.1,1-1.4,1.1c-0.3,0.2-0.5,0.2-0.7,0.2c-0.2,0-0.3,0-0.4-0.1c-0.1-0.1-0.1-0.2-0.1-0.4c0-0.6,0.3-2,1-4.2
		c0-0.1,0-0.2,0-0.3c0-0.1,0-0.1-0.1-0.1c-0.1,0-0.2,0-0.3,0.1C43.8,98.4,43.5,98.6,43.1,99z M45.8,94.5c0.1,0,0.3,0,0.3,0.1
		c0.1,0.1,0.1,0.2,0.1,0.4c0,0.2-0.1,0.4-0.2,0.5c-0.1,0.2-0.3,0.2-0.5,0.2c-0.1,0-0.2,0-0.3-0.1s-0.1-0.2-0.1-0.4
		c0-0.2,0.1-0.4,0.2-0.5C45.5,94.6,45.6,94.5,45.8,94.5z"/>
	<path class="st2" d="M46.4,99l-0.2-0.2c0.6-0.6,1-0.9,1.4-1.1s0.6-0.3,0.9-0.3c0.1,0,0.2,0,0.2,0.1c0.1,0,0.1,0.1,0.1,0.1
		c0,0,0,0.1,0,0.2l-0.3,1.4c0.5-0.5,1-1,1.7-1.4c0.4-0.2,0.7-0.3,0.9-0.3c0.2,0,0.3,0.1,0.4,0.2c0.1,0.1,0.1,0.3,0.1,0.5
		c0,0.1,0,0.3-0.1,0.5c-0.1,0.3-0.3,0.9-0.6,1.9c-0.3,0.9-0.4,1.5-0.4,1.8c0,0.1,0,0.2,0,0.2s0.1,0.1,0.1,0.1c0.1,0,0.3-0.1,0.6-0.4
		c0.2-0.2,0.4-0.4,0.6-0.5l0.2,0.2c-0.4,0.5-0.9,0.8-1.3,1.1c-0.3,0.2-0.5,0.3-0.7,0.3c-0.2,0-0.3-0.1-0.4-0.2
		c-0.1-0.1-0.1-0.3-0.1-0.6c0-0.4,0.3-1.4,0.8-3c0.2-0.6,0.2-0.9,0.2-1c0-0.1-0.1-0.2-0.3-0.2c-0.2,0-0.4,0.1-0.7,0.3
		c-0.4,0.3-0.8,0.6-1.1,1c-0.2,0.2-0.3,0.6-0.5,1.2l-0.6,2.4h-1c0.2-0.7,0.4-1.3,0.5-2l0.6-2.6c0-0.1,0-0.2,0-0.2
		c0-0.1,0-0.2-0.1-0.2c-0.1,0-0.2,0-0.3,0.1C47,98.5,46.7,98.8,46.4,99z"/>
	<path class="st2" d="M57.3,97.4l0.5-0.1c-0.3,1.1-0.6,2.1-0.9,3.2c-0.2,0.8-0.3,1.4-0.4,1.9c0,0.3-0.1,0.6-0.1,1
		c0,0.7-0.1,1.2-0.2,1.6c-0.2,0.6-0.5,1-1.1,1.3c-0.5,0.3-1.1,0.5-1.9,0.5c-0.6,0-1.1-0.1-1.4-0.4c-0.4-0.3-0.5-0.6-0.5-1
		c0-0.4,0.1-0.7,0.4-1c0.2-0.2,0.6-0.5,1.3-0.9c0.3-0.2,0.7-0.4,1-0.5c-0.3,0.2-0.6,0.3-0.8,0.3c-0.2,0-0.3-0.1-0.4-0.2
		c-0.1-0.2-0.2-0.4-0.2-0.6c0-0.8,0.2-1.7,0.7-2.5c0.5-0.8,1.1-1.4,1.8-1.9c0.4-0.3,1-0.4,1.6-0.4c0.1,0,0.3,0,0.5,0L57.3,97.4z
		 M55.6,102.1c-0.3,0.3-0.9,0.7-1.8,1.3c-0.8,0.5-1.3,0.9-1.4,1.1c-0.2,0.2-0.3,0.5-0.3,0.8c0,0.3,0.1,0.5,0.3,0.7
		c0.2,0.2,0.5,0.3,0.8,0.3c0.3,0,0.6-0.1,0.9-0.2c0.3-0.2,0.5-0.4,0.8-0.7c0.2-0.3,0.4-0.6,0.4-1c0.1-0.4,0.1-0.8,0.1-1.4
		C55.5,102.9,55.5,102.6,55.6,102.1z M56.5,98.4c-0.2,0-0.4-0.1-0.6-0.1c-0.4,0-0.8,0.1-1.1,0.3c-0.3,0.2-0.6,0.6-0.8,1.1
		c-0.3,0.8-0.5,1.4-0.5,1.9c0,0.2,0.1,0.4,0.2,0.5c0.1,0.1,0.3,0.2,0.4,0.2c0.2,0,0.4-0.1,0.7-0.3c0.3-0.2,0.5-0.4,0.7-0.7
		c0.2-0.3,0.3-0.7,0.5-1.4L56.5,98.4z"/>
	<path class="st2" d="M69.2,97.7h-0.4c0-0.2,0-0.4,0-0.6c0-0.6-0.2-1.1-0.5-1.3c-0.3-0.3-0.7-0.4-1.2-0.4c-0.6,0-1.3,0.2-1.9,0.7
		s-1.2,1-1.6,1.8c-0.4,0.8-0.6,1.6-0.6,2.4c0,0.9,0.2,1.5,0.6,1.9s0.9,0.6,1.4,0.6c0.3,0,0.6,0,0.9-0.1c0.3-0.1,0.5-0.2,0.8-0.4
		c0.2-0.7,0.3-1.2,0.3-1.4c0-0.1,0-0.2-0.1-0.3c-0.1-0.1-0.2-0.1-0.4-0.1c-0.1,0-0.2,0-0.5,0l0.1-0.3c0.2,0,0.4-0.1,0.6-0.1
		c0.2,0,0.4,0,0.6,0c0.2,0,0.3,0,0.4,0c0.2,0,0.4,0,0.8,0c0.2,0,0.3,0,0.5,0l-0.1,0.3c-0.2,0-0.4,0-0.5,0.1
		c-0.1,0.1-0.2,0.4-0.3,0.8c-0.4,1.5-0.7,2.7-1.1,3.4s-0.8,1.2-1.2,1.5c-0.5,0.3-1,0.5-1.5,0.5c-0.5,0-0.8-0.1-1.1-0.3
		c-0.3-0.2-0.4-0.4-0.4-0.7c0-0.1,0-0.2,0.1-0.3c0.1-0.1,0.2-0.1,0.3-0.1c0.2,0,0.3,0.1,0.5,0.3c0.2,0.2,0.4,0.4,0.5,0.5
		c0.1,0.1,0.3,0.1,0.4,0.1c0.3,0,0.5-0.1,0.8-0.3c0.4-0.4,0.9-1.5,1.3-3.1c-0.3,0.2-0.6,0.3-0.9,0.4s-0.6,0.1-0.9,0.1
		c-0.8,0-1.4-0.2-1.9-0.6c-0.6-0.6-0.9-1.3-0.9-2.4c0-0.9,0.2-1.8,0.7-2.6c0.5-0.8,1.1-1.5,1.9-2c0.8-0.5,1.6-0.8,2.4-0.8
		c0.4,0,0.9,0.1,1.4,0.2c0.5,0.1,1,0.2,1.3,0.2C69.3,96.2,69.2,97,69.2,97.7z"/>
	<path class="st2" d="M72.8,101.5l0.2,0.2c-0.4,0.4-0.8,0.8-1.3,1.1c-0.5,0.3-0.9,0.5-1.2,0.5c-0.1,0-0.3-0.1-0.3-0.2
		c-0.1-0.1-0.1-0.3-0.1-0.4c0-0.4,0.1-1.1,0.4-2.3l0.7-3c0.3-1.1,0.5-1.8,0.7-2.2c0.3-0.6,0.7-1,1.2-1.3c0.5-0.3,1.1-0.5,1.6-0.5
		c0.2,0,0.3,0,0.5,0.1c0.1,0.1,0.2,0.2,0.2,0.3c0,0.1-0.1,0.3-0.2,0.4c-0.1,0.1-0.3,0.1-0.5,0.1c-0.1,0-0.3,0-0.6-0.1
		c-0.2,0-0.4-0.1-0.6-0.1c-0.2,0-0.3,0-0.4,0.1c-0.1,0.1-0.2,0.3-0.4,0.7c-0.1,0.3-0.3,1-0.5,2.1l-0.7,2.9c-0.3,1.4-0.5,2.2-0.5,2.2
		c0,0.1,0.1,0.2,0.2,0.2c0.1,0,0.2-0.1,0.4-0.2C72.1,102.2,72.4,101.9,72.8,101.5z"/>
	<path class="st2" d="M76.7,97.4c0.4,0,0.8,0.2,1.1,0.5s0.4,0.8,0.4,1.5c0,1-0.4,1.9-1.1,2.7c-0.7,0.8-1.5,1.2-2.2,1.2
		c-0.5,0-0.9-0.2-1.2-0.5c-0.3-0.3-0.4-0.8-0.4-1.3c0-1,0.3-1.8,0.8-2.6C74.8,97.9,75.7,97.4,76.7,97.4z M76.1,97.9
		c-0.4,0-0.8,0.3-1.1,0.8c-0.4,0.6-0.5,1.3-0.5,2.3c0,0.6,0.1,1.1,0.3,1.4c0.2,0.2,0.4,0.4,0.7,0.4c0.4,0,0.7-0.2,1-0.7
		c0.4-0.6,0.6-1.4,0.6-2.3c0-0.7-0.1-1.2-0.3-1.5C76.6,98.1,76.4,97.9,76.1,97.9z"/>
	<path class="st2" d="M81,98.6c0.4-0.4,0.7-0.7,1.1-0.9c0.4-0.2,0.7-0.3,0.9-0.3c0.3,0,0.6,0.1,0.8,0.4c0.2,0.3,0.3,0.6,0.3,1.2
		c0,0.7-0.2,1.5-0.5,2.2c-0.3,0.7-0.8,1.3-1.3,1.6c-0.5,0.4-1,0.6-1.5,0.6c-0.4,0-0.8-0.1-1-0.4c-0.2-0.2-0.4-0.6-0.4-1
		c0-0.3,0.1-0.8,0.2-1.3l0.8-3.6c0.2-0.9,0.4-1.6,0.7-2s0.7-0.8,1.2-1.1c0.5-0.3,0.9-0.4,1.4-0.4c0.3,0,0.4,0,0.6,0.1
		c0.1,0.1,0.2,0.2,0.2,0.4c0,0.1-0.1,0.2-0.2,0.3c-0.1,0.1-0.3,0.1-0.5,0.1c-0.2,0-0.4,0-0.8-0.1c-0.2,0-0.3,0-0.4,0
		c-0.2,0-0.4,0.1-0.6,0.4c-0.1,0.2-0.2,0.7-0.4,1.5L81,98.6z M82.3,98.2c-0.2,0-0.5,0.1-0.8,0.4c-0.3,0.3-0.6,0.7-0.9,1.4
		c-0.3,0.7-0.4,1.3-0.4,2c0,0.2,0.1,0.5,0.2,0.6c0.2,0.2,0.3,0.2,0.5,0.2c0.5,0,1-0.4,1.4-1.2c0.4-0.8,0.6-1.6,0.6-2.4
		c0-0.4-0.1-0.7-0.2-0.9C82.6,98.3,82.5,98.2,82.3,98.2z"/>
	<path class="st2" d="M89.4,97.3l0.4-0.1l-0.5,1.7c-0.2,0.7-0.4,1.5-0.6,2.4c-0.1,0.5-0.1,0.8-0.1,0.9c0,0.1,0.1,0.2,0.2,0.2
		c0.1,0,0.2,0,0.3-0.1c0.3-0.2,0.6-0.4,0.8-0.6l0.2,0.3c-0.5,0.5-0.9,0.8-1,0.9c-0.3,0.2-0.6,0.3-0.8,0.4c-0.2,0.1-0.3,0.1-0.5,0.1
		c-0.1,0-0.2,0-0.3-0.1c-0.1-0.1-0.1-0.1-0.1-0.2c0-0.1,0-0.2,0.1-0.3l0.3-0.9c-0.4,0.5-0.9,0.9-1.4,1.2c-0.3,0.2-0.6,0.3-0.9,0.3
		c-0.3,0-0.5-0.1-0.6-0.3c-0.2-0.2-0.3-0.6-0.3-1c0-0.5,0.1-1,0.4-1.6c0.3-0.6,0.6-1.1,1-1.6s0.9-0.8,1.4-1.1
		c0.4-0.2,0.8-0.3,1.4-0.3c0.1,0,0.3,0,0.4,0L89.4,97.3z M88.6,98.4c-0.2,0-0.5-0.1-0.6-0.1c-0.4,0-0.8,0.1-1.1,0.3
		c-0.3,0.2-0.6,0.6-0.8,1.2c-0.3,0.6-0.4,1.2-0.4,1.7c0,0.3,0.1,0.5,0.2,0.7c0.1,0.1,0.2,0.2,0.4,0.2c0.3,0,0.6-0.2,1-0.5
		c0.4-0.3,0.6-0.8,0.8-1.5L88.6,98.4z"/>
	<path class="st2" d="M93.5,101.5l0.2,0.2c-0.4,0.4-0.8,0.8-1.3,1.1c-0.5,0.3-0.9,0.5-1.2,0.5c-0.1,0-0.3-0.1-0.3-0.2
		c-0.1-0.1-0.1-0.3-0.1-0.4c0-0.4,0.1-1.1,0.4-2.3l0.7-3c0.3-1.1,0.5-1.8,0.7-2.2c0.3-0.6,0.7-1,1.2-1.3c0.5-0.3,1.1-0.5,1.6-0.5
		c0.2,0,0.3,0,0.5,0.1S96,93.9,96,94c0,0.1-0.1,0.3-0.2,0.4c-0.1,0.1-0.3,0.1-0.5,0.1c-0.1,0-0.3,0-0.6-0.1c-0.2,0-0.4-0.1-0.6-0.1
		s-0.3,0-0.4,0.1c-0.1,0.1-0.2,0.3-0.4,0.7c-0.1,0.3-0.3,1-0.5,2.1l-0.7,2.9c-0.3,1.4-0.5,2.2-0.5,2.2c0,0.1,0.1,0.2,0.2,0.2
		c0.1,0,0.2-0.1,0.4-0.2C92.7,102.2,93.1,101.9,93.5,101.5z"/>
	<path class="st2" d="M102.9,97.6h-0.4c0.1-0.5,0.1-0.8,0.1-1.1c0-0.4-0.1-0.6-0.3-0.8s-0.4-0.3-0.8-0.3c-0.5,0-0.9,0.2-1.3,0.5
		c-0.4,0.4-0.6,0.8-0.6,1.2c0,0.2,0.1,0.5,0.2,0.7c0.1,0.2,0.3,0.5,0.7,0.8c0.6,0.6,1.1,1.1,1.3,1.5c0.2,0.4,0.3,0.7,0.3,1
		c0,0.5-0.2,1-0.5,1.4c-0.3,0.5-0.7,0.8-1.3,1.1c-0.6,0.3-1.2,0.4-1.9,0.4c-0.6,0-1.2-0.2-1.6-0.5c-0.4-0.3-0.7-0.7-0.7-1.1
		c0-0.2,0.1-0.4,0.2-0.5c0.1-0.1,0.2-0.2,0.4-0.2c0.2,0,0.3,0.1,0.4,0.2c0.1,0.1,0.1,0.2,0.2,0.5c0.1,0.3,0.2,0.5,0.3,0.7
		s0.2,0.3,0.4,0.3c0.2,0.1,0.4,0.1,0.6,0.1c0.7,0,1.2-0.2,1.7-0.7c0.5-0.4,0.7-0.9,0.7-1.5c0-0.2,0-0.4-0.1-0.5
		c-0.1-0.2-0.2-0.4-0.3-0.6c-0.1-0.2-0.4-0.4-0.8-0.8c-0.4-0.4-0.6-0.6-0.7-0.8c-0.1-0.2-0.2-0.4-0.3-0.6s-0.1-0.4-0.1-0.6
		c0-0.4,0.1-0.8,0.4-1.2c0.3-0.4,0.6-0.8,1.1-1c0.4-0.2,0.9-0.4,1.5-0.4c0.3,0,0.6,0,1,0.1c0.2,0,0.4,0.1,0.6,0.1
		c-0.1,0.3-0.2,0.6-0.2,0.8C103,96.3,103,96.8,102.9,97.6z"/>
	<path class="st2" d="M105.4,96.4l1.1-0.4l-0.5,1.9h1.4l-0.1,0.5h-1.4l-0.6,2.3c-0.2,0.7-0.3,1.2-0.3,1.4c0,0.1,0,0.2,0.1,0.3
		c0.1,0.1,0.1,0.1,0.2,0.1c0.1,0,0.4-0.1,0.6-0.3c0.4-0.2,0.7-0.5,1.1-0.8l0.3,0.3c-1,0.8-1.7,1.2-2,1.4c-0.3,0.2-0.6,0.3-0.8,0.3
		c-0.2,0-0.3-0.1-0.4-0.2c-0.1-0.1-0.1-0.3-0.1-0.6c0-0.3,0.1-0.8,0.3-1.5l0.7-2.7h-1.1l0.1-0.5h1.1L105.4,96.4z"/>
	<path class="st2" d="M112.6,97.3l0.4-0.1l-0.5,1.7c-0.2,0.7-0.4,1.5-0.6,2.4c-0.1,0.5-0.1,0.8-0.1,0.9c0,0.1,0.1,0.2,0.2,0.2
		c0.1,0,0.2,0,0.3-0.1c0.3-0.2,0.6-0.4,0.8-0.6l0.2,0.3c-0.5,0.5-0.9,0.8-1,0.9c-0.3,0.2-0.6,0.3-0.8,0.4c-0.2,0.1-0.3,0.1-0.5,0.1
		c-0.1,0-0.2,0-0.3-0.1c-0.1-0.1-0.1-0.1-0.1-0.2c0-0.1,0-0.2,0.1-0.3l0.3-0.9c-0.4,0.5-0.9,0.9-1.4,1.2c-0.3,0.2-0.6,0.3-0.9,0.3
		c-0.3,0-0.5-0.1-0.6-0.3c-0.2-0.2-0.3-0.6-0.3-1c0-0.5,0.1-1,0.4-1.6c0.3-0.6,0.6-1.1,1-1.6s0.9-0.8,1.4-1.1
		c0.4-0.2,0.8-0.3,1.4-0.3c0.1,0,0.3,0,0.4,0L112.6,97.3z M111.7,98.4c-0.2,0-0.5-0.1-0.6-0.1c-0.4,0-0.8,0.1-1.1,0.3
		c-0.3,0.2-0.6,0.6-0.8,1.2c-0.3,0.6-0.4,1.2-0.4,1.7c0,0.3,0.1,0.5,0.2,0.7c0.1,0.1,0.2,0.2,0.4,0.2c0.3,0,0.6-0.2,1-0.5
		c0.4-0.3,0.6-0.8,0.8-1.5L111.7,98.4z"/>
	<path class="st2" d="M114,99l-0.2-0.2c0.6-0.6,1-0.9,1.4-1.1s0.6-0.3,0.9-0.3c0.1,0,0.2,0,0.2,0.1s0.1,0.1,0.1,0.1c0,0,0,0.1,0,0.2
		l-0.3,1.4c0.5-0.5,1-1,1.7-1.4c0.4-0.2,0.7-0.3,0.9-0.3c0.2,0,0.3,0.1,0.4,0.2c0.1,0.1,0.2,0.3,0.2,0.5c0,0.1,0,0.3-0.1,0.5
		c-0.1,0.3-0.3,0.9-0.6,1.9c-0.3,0.9-0.4,1.5-0.4,1.8c0,0.1,0,0.2,0,0.2s0.1,0.1,0.1,0.1c0.1,0,0.3-0.1,0.6-0.4
		c0.2-0.2,0.4-0.4,0.6-0.5l0.2,0.2c-0.4,0.5-0.9,0.8-1.3,1.1c-0.3,0.2-0.5,0.3-0.7,0.3c-0.2,0-0.3-0.1-0.4-0.2
		c-0.1-0.1-0.1-0.3-0.1-0.6c0-0.4,0.3-1.4,0.8-3c0.2-0.6,0.2-0.9,0.2-1c0-0.1-0.1-0.2-0.3-0.2c-0.2,0-0.4,0.1-0.7,0.3
		c-0.4,0.3-0.8,0.6-1.1,1c-0.2,0.2-0.3,0.6-0.5,1.2l-0.6,2.4h-1c0.2-0.7,0.4-1.3,0.5-2l0.6-2.6c0-0.1,0-0.2,0-0.2
		c0-0.1,0-0.2-0.1-0.2c-0.1,0-0.2,0-0.3,0.1C114.5,98.5,114.2,98.8,114,99z"/>
	<path class="st2" d="M125.5,101.7l0.2,0.3c-0.6,0.5-1.1,0.9-1.4,1c-0.4,0.2-0.7,0.3-1,0.3c-0.1,0-0.2,0-0.3-0.1s-0.1-0.1-0.1-0.2
		s0-0.2,0.1-0.4l0.2-0.8c-0.5,0.6-1,1-1.4,1.2s-0.7,0.3-1,0.3c-0.2,0-0.4-0.1-0.6-0.3c-0.2-0.2-0.2-0.5-0.2-0.9
		c0-0.6,0.2-1.4,0.7-2.2c0.4-0.8,0.9-1.5,1.5-1.9c0.5-0.4,1-0.6,1.5-0.6c0.1,0,0.2,0,0.5,0c0.2-0.9,0.4-1.5,0.6-1.9
		c0.2-0.4,0.4-0.8,0.8-1.1c0.3-0.3,0.7-0.5,1.1-0.7c0.4-0.2,0.8-0.2,1.1-0.2c0.2,0,0.3,0,0.4,0.1c0.1,0.1,0.2,0.2,0.2,0.4
		c0,0.1,0,0.3-0.2,0.3s-0.2,0.1-0.4,0.1c-0.1,0-0.3,0-0.6-0.1c-0.3,0-0.5-0.1-0.6-0.1c-0.2,0-0.3,0-0.4,0.1
		c-0.1,0.1-0.2,0.3-0.3,0.6c-0.1,0.2-0.2,0.9-0.5,2l-1,4.1c-0.1,0.5-0.2,0.8-0.2,1c0,0.2,0.1,0.3,0.2,0.3c0.1,0,0.2,0,0.3-0.1
		C124.7,102.3,125,102.1,125.5,101.7z M124,98.2c-0.4-0.1-0.6-0.1-0.8-0.1c-0.3,0-0.6,0.1-0.9,0.4c-0.3,0.2-0.6,0.7-0.8,1.4
		c-0.3,0.7-0.4,1.3-0.4,1.8c0,0.2,0.1,0.4,0.2,0.6c0.1,0.1,0.3,0.2,0.4,0.2c0.2,0,0.4-0.1,0.7-0.3c0.3-0.2,0.6-0.6,0.8-0.9
		c0.1-0.2,0.3-0.8,0.5-1.7L124,98.2z"/>
	<path class="st2" d="M131,97.3l0.4-0.1l-0.5,1.7c-0.2,0.7-0.4,1.5-0.6,2.4c-0.1,0.5-0.1,0.8-0.1,0.9c0,0.1,0.1,0.2,0.2,0.2
		c0.1,0,0.2,0,0.3-0.1c0.3-0.2,0.6-0.4,0.8-0.6l0.2,0.3c-0.5,0.5-0.9,0.8-1,0.9c-0.3,0.2-0.6,0.3-0.8,0.4c-0.2,0.1-0.3,0.1-0.5,0.1
		c-0.1,0-0.2,0-0.3-0.1c-0.1-0.1-0.1-0.1-0.1-0.2c0-0.1,0-0.2,0.1-0.3l0.3-0.9c-0.4,0.5-0.9,0.9-1.4,1.2c-0.3,0.2-0.6,0.3-0.9,0.3
		c-0.3,0-0.5-0.1-0.6-0.3c-0.2-0.2-0.3-0.6-0.3-1c0-0.5,0.1-1,0.4-1.6c0.3-0.6,0.6-1.1,1-1.6s0.9-0.8,1.4-1.1
		c0.4-0.2,0.8-0.3,1.4-0.3c0.1,0,0.3,0,0.4,0L131,97.3z M130.2,98.4c-0.2,0-0.5-0.1-0.6-0.1c-0.4,0-0.8,0.1-1.1,0.3
		c-0.3,0.2-0.6,0.6-0.8,1.2c-0.3,0.6-0.4,1.2-0.4,1.7c0,0.3,0.1,0.5,0.2,0.7c0.1,0.1,0.2,0.2,0.4,0.2c0.3,0,0.6-0.2,1-0.5
		c0.4-0.3,0.6-0.8,0.8-1.5L130.2,98.4z"/>
	<path class="st2" d="M133.5,103.2h-1l0.5-1.8c0.2-0.9,0.4-1.8,0.6-2.6c0-0.2,0.1-0.3,0.1-0.4c0-0.1,0-0.2-0.2-0.2
		c-0.1,0-0.2,0-0.3,0.1s-0.4,0.3-0.8,0.7l-0.2-0.2c0.4-0.5,0.9-0.8,1.3-1.1c0.4-0.2,0.8-0.4,1-0.4c0.1,0,0.1,0,0.2,0.1
		c0,0,0.1,0.1,0.1,0.1c0,0.1,0,0.2-0.1,0.5l-0.3,1.2c0.5-0.7,1-1.3,1.6-1.9c0.3-0.2,0.5-0.4,0.7-0.4c0.1,0,0.3,0,0.3,0.1
		s0.1,0.2,0.1,0.3c0,0.1,0,0.2-0.1,0.3s-0.3,0.2-0.7,0.3c-0.3,0.1-0.6,0.2-0.8,0.4c-0.2,0.2-0.4,0.4-0.7,0.7s-0.4,0.6-0.5,0.9
		c-0.1,0.2-0.3,0.8-0.5,1.7L133.5,103.2z"/>
	<path class="st2" d="M141.7,101.7l0.2,0.3c-0.6,0.5-1.1,0.9-1.4,1c-0.4,0.2-0.7,0.3-1,0.3c-0.1,0-0.2,0-0.3-0.1s-0.1-0.1-0.1-0.2
		s0-0.2,0.1-0.4l0.2-0.8c-0.5,0.6-1,1-1.4,1.2s-0.7,0.3-1,0.3c-0.2,0-0.4-0.1-0.6-0.3c-0.2-0.2-0.2-0.5-0.2-0.9
		c0-0.6,0.2-1.4,0.7-2.2c0.4-0.8,0.9-1.5,1.5-1.9c0.5-0.4,1-0.6,1.5-0.6c0.1,0,0.2,0,0.5,0c0.2-0.9,0.4-1.5,0.6-1.9
		c0.2-0.4,0.4-0.8,0.8-1.1c0.3-0.3,0.7-0.5,1.1-0.7c0.4-0.2,0.8-0.2,1.1-0.2c0.2,0,0.3,0,0.4,0.1c0.1,0.1,0.2,0.2,0.2,0.4
		c0,0.1,0,0.3-0.2,0.3s-0.2,0.1-0.4,0.1c-0.1,0-0.3,0-0.6-0.1c-0.3,0-0.5-0.1-0.6-0.1c-0.2,0-0.3,0-0.4,0.1
		c-0.1,0.1-0.2,0.3-0.3,0.6c-0.1,0.2-0.2,0.9-0.5,2l-1,4.1c-0.1,0.5-0.2,0.8-0.2,1c0,0.2,0.1,0.3,0.2,0.3c0.1,0,0.2,0,0.3-0.1
		C140.9,102.3,141.2,102.1,141.7,101.7z M140.2,98.2c-0.4-0.1-0.6-0.1-0.8-0.1c-0.3,0-0.6,0.1-0.9,0.4c-0.3,0.2-0.6,0.7-0.8,1.4
		c-0.3,0.7-0.4,1.3-0.4,1.8c0,0.2,0.1,0.4,0.2,0.6c0.1,0.1,0.3,0.2,0.4,0.2c0.2,0,0.4-0.1,0.7-0.3c0.3-0.2,0.6-0.6,0.8-0.9
		c0.1-0.2,0.3-0.8,0.5-1.7L140.2,98.2z"/>
	<path class="st2" d="M145.5,97.4c0.4,0,0.7,0.1,0.9,0.2c0.2,0.2,0.3,0.3,0.3,0.5c0,0.1,0,0.2-0.1,0.3c-0.1,0.1-0.2,0.1-0.3,0.1
		c-0.1,0-0.2,0-0.2-0.1c-0.1,0-0.2-0.1-0.3-0.3c-0.2-0.3-0.4-0.4-0.7-0.4c-0.2,0-0.4,0.1-0.5,0.2c-0.1,0.1-0.2,0.3-0.2,0.5
		c0,0.2,0,0.4,0.1,0.5s0.3,0.5,0.7,0.8c0.5,0.5,0.8,1,0.8,1.5s-0.2,0.9-0.6,1.3c-0.4,0.4-0.9,0.5-1.6,0.5c-0.5,0-0.9-0.1-1.2-0.3
		s-0.4-0.5-0.4-0.8c0-0.2,0-0.3,0.1-0.4s0.2-0.2,0.4-0.2c0.1,0,0.2,0,0.3,0.1c0.1,0.1,0.1,0.2,0.1,0.3c0,0,0,0.1,0,0.2
		c0,0.1,0,0.1,0,0.1c0,0.2,0.1,0.3,0.2,0.4c0.1,0.1,0.3,0.2,0.5,0.2c0.2,0,0.5,0,0.6-0.1s0.3-0.2,0.4-0.4c0.1-0.2,0.2-0.3,0.2-0.5
		c0-0.2,0-0.3-0.1-0.5c-0.1-0.2-0.3-0.4-0.7-0.8c-0.5-0.5-0.7-1-0.7-1.5c0-0.4,0.2-0.8,0.5-1.2C144.5,97.6,145,97.4,145.5,97.4z"/>
</g>
</svg>
