<?xml version="1.0" encoding="utf-8"?>
<!-- Generator: Adobe Illustrator 26.0.3, SVG Export Plug-In . SVG Version: 6.00 Build 0)  -->
<svg version="1.1" id="Layer_1" xmlns="http://www.w3.org/2000/svg" xmlns:xlink="http://www.w3.org/1999/xlink" x="0px" y="0px"
	 viewBox="0 0 164.5 109.5" style="enable-background:new 0 0 164.5 109.5;" xml:space="preserve">
<style type="text/css">
	.st0{fill:#FFFFFF;}
	.st1{fill:#193893;}
</style>
<g>
	<path class="st0" d="M164.5,48.1c0,26.6-36.8,48.1-82.2,48.1S0,74.7,0,48.1C0,21.5,36.8,0,82.2,0S164.5,21.5,164.5,48.1"/>
	<g>
		<path class="st1" d="M21.1,44.9h18.5v2.3H26v9.9h11.6v2.3H26v9.9h13.6v2.3H21.1V44.9z"/>
		<path class="st1" d="M47.6,44.9v26.7h-5V44.9H47.6z"/>
		<path class="st1" d="M50.7,44.9h5.2l6.7,19.9l6.6-19.9h5.2l6.7,19.9l6.6-19.9h2.4l-8.9,26.7h-3.1l-7.7-23.1l-7.7,23.1h-3.1
			L50.7,44.9z"/>
		<path class="st1" d="M98.2,44.9h3.1l12,26.7h-5.4l-4-8.9H92.8l-3.9,8.9h-2.5L98.2,44.9z M102.9,60.4l-4.5-10.2l-4.5,10.2H102.9z"
			/>
		<path class="st1" d="M128.3,44.9h3.1l12,26.7H138l-4-8.9h-11.1l-3.9,8.9h-2.5L128.3,44.9z M133,60.4l-4.5-10.2l-4.5,10.2H133z"/>
	</g>
	<g>
		<path class="st0" d="M10,103.9c0-0.4,0.1-0.7,0.3-1c0.2-0.3,0.5-0.5,0.8-0.6s0.7-0.3,1-0.3s0.7-0.1,1-0.1c0.3,0,0.6,0,0.8,0.1
			c0.2,0,0.5,0.1,0.7,0.2c0.2,0.1,0.4,0.2,0.5,0.3c0.1,0.1,0.3,0.2,0.4,0.3c0.2,0.3,0.4,0.6,0.5,0.9l-0.7,0.2
			c-0.1-0.3-0.2-0.5-0.3-0.7c-0.1-0.2-0.4-0.3-0.7-0.5c-0.3-0.1-0.7-0.2-1.2-0.2c-0.2,0-0.3,0-0.5,0.1s-0.4,0.1-0.6,0.2
			c-0.2,0.1-0.3,0.2-0.5,0.3c-0.1,0.1-0.2,0.3-0.2,0.5c0,0.3,0.1,0.5,0.4,0.7c0.2,0.2,0.5,0.3,0.9,0.5c0.4,0.1,0.7,0.3,1.1,0.4
			c0.4,0.1,0.8,0.3,1.1,0.5c0.3,0.2,0.6,0.4,0.9,0.7c0.2,0.3,0.4,0.7,0.4,1.1c0,0.4-0.1,0.7-0.3,1c-0.2,0.3-0.5,0.5-0.8,0.6
			c-0.3,0.2-0.7,0.3-1,0.3c-0.4,0.1-0.7,0.1-1,0.1c-0.3,0-0.6,0-0.8-0.1c-0.2,0-0.5-0.1-0.7-0.2s-0.4-0.2-0.5-0.3
			c-0.1-0.1-0.3-0.2-0.4-0.3c-0.2-0.3-0.4-0.5-0.5-0.9l0.6-0.2c0.1,0.3,0.2,0.5,0.4,0.7c0.2,0.2,0.4,0.3,0.7,0.5
			c0.3,0.1,0.7,0.2,1.2,0.2c0.2,0,0.3,0,0.5-0.1c0.2,0,0.4-0.1,0.6-0.2c0.2-0.1,0.3-0.2,0.5-0.3s0.2-0.3,0.2-0.5
			c0-0.2-0.1-0.4-0.2-0.5c-0.1-0.1-0.3-0.3-0.5-0.4s-0.5-0.2-0.8-0.3c-0.3-0.1-0.6-0.2-0.9-0.3c-0.3-0.1-0.6-0.2-0.9-0.4
			c-0.3-0.1-0.5-0.3-0.8-0.5s-0.4-0.4-0.5-0.6C10,104.5,10,104.3,10,103.9z"/>
		<path class="st0" d="M17,102h5.1v0.6h-3.7v2.7h3.2v0.6h-3.2v2.7h3.7v0.6H17V102z"/>
		<path class="st0" d="M27,102.6v6.7h-1.4v-6.7h-2.7V102h6.8v0.6H27z"/>
		<path class="st0" d="M34.7,102.6v6.7h-1.4v-6.7h-2.7V102h6.8v0.6H34.7z"/>
		<path class="st0" d="M39.6,102v7.4h-1.4V102H39.6z"/>
		<path class="st0" d="M41.1,103v6.3h-0.6V102h1.6l3.9,6.3V102h0.6v7.4H45L41.1,103z"/>
		<path class="st0" d="M53.7,102l-0.1,0.6c-0.3-0.1-0.5-0.1-0.8-0.2c-0.2,0-0.5-0.1-0.7-0.1c-0.4,0-0.9,0.1-1.2,0.2
			c-0.4,0.1-0.7,0.3-1,0.6s-0.5,0.6-0.7,1c-0.2,0.4-0.2,0.9-0.2,1.4c0,0.5,0.1,1,0.2,1.4c0.2,0.4,0.4,0.8,0.6,1
			c0.3,0.3,0.6,0.5,1,0.6c0.4,0.1,0.8,0.2,1.2,0.2c0.2,0,0.3,0,0.5,0v-3.2h1.4v3.7h-0.5c-0.3,0.1-0.5,0.1-0.8,0.1
			c-0.2,0-0.5,0-0.7,0c-0.6,0-1.2-0.1-1.7-0.3c-0.5-0.2-1-0.4-1.4-0.8c-0.4-0.3-0.7-0.7-0.9-1.2c-0.2-0.5-0.3-1-0.3-1.7
			c0-0.6,0.1-1.2,0.4-1.6c0.2-0.5,0.6-0.9,1-1.2c0.4-0.3,0.9-0.6,1.4-0.7c0.5-0.2,1.1-0.2,1.7-0.2C52.5,101.8,53.1,101.9,53.7,102z"
			/>
		<path class="st0" d="M63.6,102l-0.1,0.6c-0.3-0.1-0.5-0.1-0.8-0.2c-0.2,0-0.5-0.1-0.7-0.1c-0.4,0-0.9,0.1-1.2,0.2
			c-0.4,0.1-0.7,0.3-1,0.6c-0.3,0.3-0.5,0.6-0.7,1c-0.2,0.4-0.2,0.9-0.2,1.4c0,0.5,0.1,1,0.2,1.4c0.2,0.4,0.4,0.8,0.6,1
			c0.3,0.3,0.6,0.5,1,0.6c0.4,0.1,0.8,0.2,1.2,0.2c0.2,0,0.3,0,0.5,0v-3.2h1.4v3.7h-0.5c-0.3,0.1-0.5,0.1-0.8,0.1
			c-0.2,0-0.5,0-0.7,0c-0.6,0-1.2-0.1-1.7-0.3c-0.5-0.2-1-0.4-1.4-0.8c-0.4-0.3-0.7-0.7-0.9-1.2c-0.2-0.5-0.3-1-0.3-1.7
			c0-0.6,0.1-1.2,0.4-1.6s0.6-0.9,1-1.2c0.4-0.3,0.9-0.6,1.4-0.7c0.5-0.2,1.1-0.2,1.7-0.2C62.4,101.8,63,101.9,63.6,102z"/>
		<path class="st0" d="M64.6,102H66v6.7h3.7v0.6h-5.1V102z"/>
		<path class="st0" d="M73.2,101.8c0.6,0,1.1,0.1,1.5,0.3c0.5,0.2,0.9,0.4,1.2,0.8c0.3,0.3,0.6,0.7,0.8,1.2s0.3,1,0.3,1.6
			s-0.1,1.1-0.3,1.6s-0.4,0.9-0.8,1.2c-0.3,0.3-0.7,0.6-1.2,0.8c-0.5,0.2-1,0.3-1.5,0.3s-1.1-0.1-1.5-0.3c-0.5-0.2-0.8-0.4-1.2-0.8
			c-0.3-0.3-0.6-0.7-0.8-1.2c-0.2-0.5-0.3-1-0.3-1.6s0.1-1.1,0.3-1.6c0.2-0.5,0.4-0.9,0.8-1.2c0.3-0.3,0.7-0.6,1.2-0.8
			C72.1,101.9,72.6,101.8,73.2,101.8z M73.2,108.9c0.4,0,0.7-0.1,1-0.2s0.5-0.4,0.7-0.7c0.2-0.3,0.3-0.6,0.4-1
			c0.1-0.4,0.1-0.8,0.1-1.3c0-0.5,0-0.9-0.1-1.3c-0.1-0.4-0.2-0.7-0.4-1c-0.2-0.3-0.4-0.5-0.7-0.7s-0.6-0.2-1-0.2s-0.7,0.1-1,0.2
			c-0.3,0.2-0.5,0.4-0.7,0.7s-0.3,0.6-0.4,1c-0.1,0.4-0.1,0.8-0.1,1.3c0,0.5,0,0.9,0.1,1.3c0.1,0.4,0.2,0.7,0.4,1
			c0.2,0.3,0.4,0.5,0.7,0.7S72.8,108.9,73.2,108.9z"/>
		<path class="st0" d="M77.7,109.4V102h2.5c0.4,0,0.8,0,1.2,0.1c0.4,0,0.7,0.1,1,0.3c0.3,0.1,0.5,0.3,0.7,0.5
			c0.2,0.2,0.3,0.5,0.3,0.9c0,0.3-0.1,0.5-0.2,0.7s-0.3,0.4-0.5,0.5c-0.2,0.2-0.4,0.3-0.7,0.4c0.3,0.1,0.6,0.2,0.8,0.3
			c0.1,0.1,0.2,0.1,0.3,0.2c0.1,0.1,0.2,0.2,0.3,0.3s0.1,0.3,0.2,0.4s0.1,0.3,0.1,0.5c0,0.4-0.1,0.7-0.3,1s-0.5,0.5-0.8,0.7
			c-0.3,0.2-0.7,0.3-1.1,0.4s-0.8,0.1-1.2,0.1H77.7z M79.1,102.6v2.5h1.1c0.2,0,0.4,0,0.6-0.1c0.2-0.1,0.4-0.1,0.5-0.2
			c0.1-0.1,0.3-0.2,0.3-0.4c0.1-0.2,0.1-0.4,0.1-0.6c0-0.2,0-0.4-0.1-0.6c-0.1-0.2-0.2-0.3-0.3-0.4c-0.1-0.1-0.3-0.1-0.5-0.2
			c-0.2,0-0.4-0.1-0.6-0.1H79.1z M80.2,108.7c0.2,0,0.5,0,0.7-0.1c0.2,0,0.4-0.1,0.6-0.2s0.3-0.3,0.4-0.5s0.2-0.4,0.2-0.8
			c0-0.3-0.1-0.6-0.2-0.8c-0.1-0.2-0.3-0.3-0.4-0.5c-0.2-0.1-0.4-0.2-0.6-0.2c-0.2,0-0.5-0.1-0.7-0.1h-1.1v3H80.2z"/>
		<path class="st0" d="M87.2,102H88l3.3,7.4h-1.5l-1.1-2.4h-3.1l-1.1,2.4h-0.7L87.2,102z M88.5,106.3l-1.2-2.8l-1.2,2.8H88.5z"/>
		<path class="st0" d="M92.2,102h1.4v6.7h3.7v0.6h-5.1V102z"/>
		<path class="st0" d="M100.8,103.9c0-0.4,0.1-0.7,0.3-1c0.2-0.3,0.5-0.5,0.8-0.6s0.7-0.3,1-0.3s0.7-0.1,1-0.1c0.3,0,0.6,0,0.8,0.1
			c0.2,0,0.5,0.1,0.7,0.2c0.2,0.1,0.4,0.2,0.5,0.3c0.1,0.1,0.3,0.2,0.4,0.3c0.2,0.3,0.4,0.6,0.5,0.9l-0.7,0.2
			c-0.1-0.3-0.2-0.5-0.3-0.7c-0.1-0.2-0.4-0.3-0.7-0.5c-0.3-0.1-0.7-0.2-1.2-0.2c-0.2,0-0.3,0-0.5,0.1s-0.4,0.1-0.6,0.2
			c-0.2,0.1-0.3,0.2-0.5,0.3c-0.1,0.1-0.2,0.3-0.2,0.5c0,0.3,0.1,0.5,0.4,0.7c0.2,0.2,0.5,0.3,0.9,0.5c0.4,0.1,0.7,0.3,1.1,0.4
			c0.4,0.1,0.8,0.3,1.1,0.5c0.3,0.2,0.6,0.4,0.9,0.7c0.2,0.3,0.4,0.7,0.4,1.1c0,0.4-0.1,0.7-0.3,1s-0.5,0.5-0.8,0.6
			c-0.3,0.2-0.7,0.3-1,0.3c-0.4,0.1-0.7,0.1-1,0.1c-0.3,0-0.6,0-0.8-0.1c-0.2,0-0.5-0.1-0.7-0.2s-0.4-0.2-0.5-0.3
			c-0.1-0.1-0.3-0.2-0.4-0.3c-0.2-0.3-0.4-0.5-0.5-0.9l0.6-0.2c0.1,0.3,0.2,0.5,0.4,0.7c0.2,0.2,0.4,0.3,0.7,0.5
			c0.3,0.1,0.7,0.2,1.2,0.2c0.2,0,0.3,0,0.5-0.1c0.2,0,0.4-0.1,0.6-0.2c0.2-0.1,0.3-0.2,0.5-0.3s0.2-0.3,0.2-0.5
			c0-0.2-0.1-0.4-0.2-0.5c-0.1-0.1-0.3-0.3-0.5-0.4s-0.5-0.2-0.8-0.3c-0.3-0.1-0.6-0.2-0.9-0.3c-0.3-0.1-0.6-0.2-0.9-0.4
			c-0.3-0.1-0.5-0.3-0.8-0.5s-0.4-0.4-0.5-0.6C100.9,104.5,100.8,104.3,100.8,103.9z"/>
		<path class="st0" d="M111.7,102.6v6.7h-1.4v-6.7h-2.7V102h6.8v0.6H111.7z"/>
		<path class="st0" d="M116.5,102h0.9l3.3,7.4h-1.5l-1.1-2.4H115l-1.1,2.4h-0.7L116.5,102z M117.8,106.3l-1.2-2.8l-1.2,2.8H117.8z"
			/>
		<path class="st0" d="M122.1,103v6.3h-0.6V102h1.6l3.9,6.3V102h0.6v7.4H126L122.1,103z"/>
		<path class="st0" d="M128.5,102h1.4c0.6,0,1.2,0.1,1.7,0.2c0.6,0.1,1.1,0.4,1.5,0.7c0.4,0.3,0.8,0.7,1,1.1c0.3,0.5,0.4,1,0.4,1.6
			s-0.1,1.2-0.4,1.6c-0.3,0.5-0.6,0.8-1,1.1s-0.9,0.5-1.5,0.7c-0.6,0.1-1.1,0.2-1.7,0.2h-1.4V102z M129.8,102.6v6.1h0
			c0.4,0,0.8-0.1,1.2-0.2c0.4-0.1,0.7-0.3,1-0.6s0.5-0.6,0.7-1c0.2-0.4,0.2-0.8,0.2-1.3c0-0.5-0.1-1-0.2-1.3c-0.2-0.4-0.4-0.7-0.7-1
			s-0.6-0.4-1-0.6C130.7,102.7,130.3,102.6,129.8,102.6L129.8,102.6z"/>
		<path class="st0" d="M137.7,102h0.9l3.3,7.4h-1.5l-1.1-2.4h-3.1l-1.1,2.4h-0.7L137.7,102z M139,106.3l-1.2-2.8l-1.2,2.8H139z"/>
		<path class="st0" d="M142.7,109.4V102h3c0.4,0,0.8,0,1.2,0.1c0.4,0.1,0.7,0.2,1,0.4c0.3,0.2,0.5,0.4,0.7,0.7
			c0.2,0.3,0.3,0.6,0.3,1c0,0.3,0,0.5-0.1,0.8s-0.2,0.4-0.4,0.6c-0.2,0.2-0.4,0.3-0.6,0.5s-0.5,0.2-0.7,0.3l1.7,2.9l-1.6,0l-1.6-2.7
			h-1.4v2.7H142.7z M144.1,102.6v3.4h1.6c0.2,0,0.4,0,0.6-0.1c0.2-0.1,0.4-0.2,0.5-0.3c0.1-0.1,0.3-0.3,0.3-0.5
			c0.1-0.2,0.1-0.5,0.1-0.7c0-0.3,0-0.5-0.1-0.7c-0.1-0.2-0.2-0.4-0.3-0.5s-0.3-0.2-0.5-0.3c-0.2-0.1-0.4-0.1-0.6-0.1H144.1z"/>
		<path class="st0" d="M149.7,102h1.4c0.6,0,1.2,0.1,1.7,0.2c0.6,0.1,1.1,0.4,1.5,0.7c0.4,0.3,0.8,0.7,1,1.1s0.4,1,0.4,1.6
			s-0.1,1.2-0.4,1.6s-0.6,0.8-1,1.1c-0.4,0.3-0.9,0.5-1.5,0.7c-0.6,0.1-1.1,0.2-1.7,0.2h-1.4V102z M151.1,102.6v6.1h0
			c0.4,0,0.8-0.1,1.2-0.2s0.7-0.3,1-0.6c0.3-0.3,0.5-0.6,0.7-1c0.2-0.4,0.2-0.8,0.2-1.3c0-0.5-0.1-1-0.2-1.3c-0.2-0.4-0.4-0.7-0.7-1
			c-0.3-0.3-0.6-0.4-1-0.6S151.5,102.6,151.1,102.6L151.1,102.6z"/>
		<path class="st0" d="M156.3,103.9c0-0.4,0.1-0.7,0.3-1c0.2-0.3,0.5-0.5,0.8-0.6c0.3-0.2,0.7-0.3,1-0.3s0.7-0.1,1-0.1
			c0.3,0,0.6,0,0.8,0.1s0.5,0.1,0.7,0.2s0.4,0.2,0.5,0.3c0.1,0.1,0.3,0.2,0.4,0.3c0.2,0.3,0.4,0.6,0.5,0.9l-0.7,0.2
			c-0.1-0.3-0.2-0.5-0.3-0.7c-0.1-0.2-0.4-0.3-0.7-0.5c-0.3-0.1-0.7-0.2-1.2-0.2c-0.2,0-0.3,0-0.5,0.1s-0.4,0.1-0.6,0.2
			s-0.3,0.2-0.5,0.3c-0.1,0.1-0.2,0.3-0.2,0.5c0,0.3,0.1,0.5,0.4,0.7s0.5,0.3,0.9,0.5c0.3,0.1,0.7,0.3,1.1,0.4
			c0.4,0.1,0.8,0.3,1.1,0.5c0.4,0.2,0.6,0.4,0.9,0.7s0.4,0.7,0.4,1.1c0,0.4-0.1,0.7-0.3,1c-0.2,0.3-0.5,0.5-0.8,0.6
			c-0.3,0.2-0.7,0.3-1,0.3c-0.4,0.1-0.7,0.1-1,0.1c-0.3,0-0.6,0-0.8-0.1c-0.2,0-0.5-0.1-0.7-0.2c-0.2-0.1-0.4-0.2-0.5-0.3
			c-0.1-0.1-0.3-0.2-0.4-0.3c-0.2-0.3-0.4-0.5-0.5-0.9l0.6-0.2c0.1,0.3,0.2,0.5,0.4,0.7c0.2,0.2,0.4,0.3,0.7,0.5
			c0.3,0.1,0.7,0.2,1.2,0.2c0.2,0,0.3,0,0.5-0.1c0.2,0,0.4-0.1,0.6-0.2s0.3-0.2,0.5-0.3s0.2-0.3,0.2-0.5c0-0.2-0.1-0.4-0.2-0.5
			c-0.1-0.1-0.3-0.3-0.5-0.4s-0.5-0.2-0.8-0.3c-0.3-0.1-0.6-0.2-0.9-0.3c-0.3-0.1-0.6-0.2-0.9-0.4c-0.3-0.1-0.5-0.3-0.8-0.5
			c-0.2-0.2-0.4-0.4-0.5-0.6C156.4,104.5,156.3,104.3,156.3,103.9z"/>
	</g>
	<path class="st1" d="M65,28.1c0,0,5.5-11.6,16.4-13c0,0,13-4.1,16.4-10.9c0,0-10.2,4.1-16.4,4.5C75.2,9,62.3,8.3,65,28.1"/>
	<path class="st1" d="M99.4,11.7c0,0-5.5,11.6-16.4,13c0,0-13,4.1-16.4,10.9c0,0,10.2-4.1,16.4-4.5C89.2,30.8,102.2,31.5,99.4,11.7"
		/>
</g>
<g>
</g>
<g>
</g>
<g>
</g>
<g>
</g>
<g>
</g>
<g>
</g>
</svg>
