<?xml version="1.0" encoding="utf-8"?>
<!-- Generator: Adobe Illustrator 26.0.3, SVG Export Plug-In . SVG Version: 6.00 Build 0)  -->
<svg version="1.1" id="Layer_1" xmlns="http://www.w3.org/2000/svg" xmlns:xlink="http://www.w3.org/1999/xlink" x="0px" y="0px"
	 viewBox="0 0 48 48" style="enable-background:new 0 0 48 48;" xml:space="preserve">
<g>
	<path style="fill:#193893;" d="M11.6,33.8h24.9V14.2H11.6V33.8z M32.3,16.5L24,26l-8.3-9.5H32.3z M13.9,31.5V17.9L24,29.5
		l10.1-11.5v13.6H13.9z"/>
	<path style="fill:#193893;" d="M24,0.4C11,0.4,0.5,11,0.5,24C0.5,37,11,47.6,24,47.6C37,47.6,47.5,37,47.5,24
		C47.5,11,37,0.4,24,0.4 M24,45.1C12.3,45.1,2.9,35.7,2.9,24C2.9,12.3,12.3,2.9,24,2.9c11.7,0,21.1,9.5,21.1,21.1
		C45.1,35.7,35.7,45.1,24,45.1"/>
</g>
<g>
</g>
<g>
</g>
<g>
</g>
<g>
</g>
<g>
</g>
<g>
</g>
</svg>
